HIERARCHY
ROOT reference
{
  OFFSET 0 0 0
  CHANNELS 6 Xposition Yposition Zposition Zrotation Xrotation Yrotation
  JOINT Hips
  {
    OFFSET 339.145 90.8604 236.464
    CHANNELS 3 Zrotation Xrotation Yrotation
    JOINT RightUpLeg
    {
      OFFSET -9.24113 -1.522 -0.0337757
      CHANNELS 3 Zrotation Xrotation Yrotation
      JOINT RightLeg
      {
        OFFSET 0.0344394 -41.8985 0.100154
        CHANNELS 3 Zrotation Xrotation Yrotation
        JOINT RightFoot
        {
          OFFSET -0.415571 -42.0751 0.023027
          CHANNELS 3 Zrotation Xrotation Yrotation
          End Site
          {
            OFFSET 0 -7.69 17.5
          }
        }
      }
    }
    JOINT LeftUpLeg
    {
      OFFSET 9.30897 -1.67379 -0.0291548
      CHANNELS 3 Zrotation Xrotation Yrotation
      JOINT LeftLeg
      {
        OFFSET 0.0832755 -41.864 -0.14338
        CHANNELS 3 Zrotation Xrotation Yrotation
        JOINT LeftFoot
        {
          OFFSET 0.17151 -41.5225 0.735469
          CHANNELS 3 Zrotation Xrotation Yrotation
          End Site
          {
            OFFSET 0 -7.69 17.5
          }
        }
      }
    }
    JOINT Spine
    {
      OFFSET 0.00853273 14.2903 0.0777264
      CHANNELS 3 Zrotation Xrotation Yrotation
      JOINT Spine1
      {
        OFFSET 0.0173944 9.71323 0.029081
        CHANNELS 3 Zrotation Xrotation Yrotation
        JOINT Spine2
        {
          OFFSET 0.0412483 10.1247 -0.0145163
          CHANNELS 3 Zrotation Xrotation Yrotation
          JOINT Spine3
          {
            OFFSET 0.0279063 9.71793 0.00755232
            CHANNELS 3 Zrotation Xrotation Yrotation
            JOINT Neck
            {
              OFFSET 0.0852486 10.3712 0.0268485
              CHANNELS 3 Zrotation Xrotation Yrotation
              JOINT Head
              {
                OFFSET 0.0739267 9.48251 0.0332551
                CHANNELS 3 Zrotation Xrotation Yrotation
                End Site
                {
                  OFFSET 0 15.95 0
                }
              }
            }
            JOINT RightShoulder
            {
              OFFSET -3.14957 6.95772 0.0300988
              CHANNELS 3 Zrotation Xrotation Yrotation
              JOINT RightArm
              {
                OFFSET -12.7513 0.0411148 0.0791701
                CHANNELS 3 Zrotation Xrotation Yrotation
                JOINT RightForeArm
                {
                  OFFSET -26.4959 0.0361336 0.259434
                  CHANNELS 3 Zrotation Xrotation Yrotation
                  JOINT RightHand
                  {
                    OFFSET -25.9829 -0.0837334 0.191464
                    CHANNELS 3 Zrotation Xrotation Yrotation
                    JOINT RightHandThumb1
                    {
                      OFFSET -2.48905 0.190105 3.12053
                      CHANNELS 3 Zrotation Xrotation Yrotation
                      JOINT RightHandThumb2
                      {
                        OFFSET -3.68274 0 0
                        CHANNELS 3 Zrotation Xrotation Yrotation
                        JOINT RightHandThumb3
                        {
                          OFFSET -2.55832 0 0
                          CHANNELS 3 Zrotation Xrotation Yrotation
                          End Site
                          {
                            OFFSET -2.194 0 0
                          }
                        }
                      }
                    }
                    JOINT RightInHandIndex
                    {
                      OFFSET -3.22368 0.508421 1.97842
                      CHANNELS 3 Zrotation Xrotation Yrotation
                      JOINT RightHandIndex1
                      {
                        OFFSET -5.21684 -0.091368 0.999158
                        CHANNELS 3 Zrotation Xrotation Yrotation
                        JOINT RightHandIndex2
                        {
                          OFFSET -3.61937 0 0
                          CHANNELS 3 Zrotation Xrotation Yrotation
                          JOINT RightHandIndex3
                          {
                            OFFSET -2.0521 0 0
                            CHANNELS 3 Zrotation Xrotation Yrotation
                            End Site
                            {
                              OFFSET -1.805 0 0
                            }
                          }
                        }
                      }
                    }
                    JOINT RightInHandMiddle
                    {
                      OFFSET -3.38211 0.517263 0.756737
                      CHANNELS 3 Zrotation Xrotation Yrotation
                      JOINT RightHandMiddle1
                      {
                        OFFSET -5.17411 -0.084 0.313895
                        CHANNELS 3 Zrotation Xrotation Yrotation
                        JOINT RightHandMiddle2
                        {
                          OFFSET -3.94947 0 0
                          CHANNELS 3 Zrotation Xrotation Yrotation
                          JOINT RightHandMiddle3
                          {
                            OFFSET -2.47579 0 0
                            CHANNELS 3 Zrotation Xrotation Yrotation
                            End Site
                            {
                              OFFSET -1.975 0 0
                            }
                          }
                        }
                      }
                    }
                    JOINT RightInHandRing
                    {
                      OFFSET -3.36516 0.537895 -0.128947
                      CHANNELS 3 Zrotation Xrotation Yrotation
                      JOINT RightHandRing1
                      {
                        OFFSET -4.63474 -0.022105 -0.478947
                        CHANNELS 3 Zrotation Xrotation Yrotation
                        JOINT RightHandRing2
                        {
                          OFFSET -3.44238 0 0
                          CHANNELS 3 Zrotation Xrotation Yrotation
                          JOINT RightHandRing3
                          {
                            OFFSET -2.3881 0 0
                            CHANNELS 3 Zrotation Xrotation Yrotation
                            End Site
                            {
                              OFFSET -1.857 0 0
                            }
                          }
                        }
                      }
                    }
                    JOINT RightInHandPinky
                    {
                      OFFSET -3.16105 0.469368 -1.20179
                      CHANNELS 3 Zrotation Xrotation Yrotation
                      JOINT RightHandPinky1
                      {
                        OFFSET -4.14105 -0.022105 -1.09053
                        CHANNELS 3 Zrotation Xrotation Yrotation
                        JOINT RightHandPinky2
                        {
                          OFFSET -2.75653 0 0
                          CHANNELS 3 Zrotation Xrotation Yrotation
                          JOINT RightHandPinky3
                          {
                            OFFSET -1.74189 0 0
                            CHANNELS 3 Zrotation Xrotation Yrotation
                            End Site
                            {
                              OFFSET -1.645 0 0
                            }
                          }
                        }
                      }
                    }
                  }
                }
              }
            }
            JOINT LeftShoulder
            {
              OFFSET 3.25273 6.91522 -0.0295735
              CHANNELS 3 Zrotation Xrotation Yrotation
              JOINT LeftArm
              {
                OFFSET 12.7785 0.0134102 -0.0213482
                CHANNELS 3 Zrotation Xrotation Yrotation
                JOINT LeftForeArm
                {
                  OFFSET 26.5044 -0.0446277 0.0404034
                  CHANNELS 3 Zrotation Xrotation Yrotation
                  JOINT LeftHand
                  {
                    OFFSET 25.9955 -0.0467726 -0.0166804
                    CHANNELS 3 Zrotation Xrotation Yrotation
                    JOINT LeftHandThumb1
                    {
                      OFFSET 2.48905 0.190105 3.12053
                      CHANNELS 3 Zrotation Xrotation Yrotation
                      JOINT LeftHandThumb2
                      {
                        OFFSET 3.68274 0 0
                        CHANNELS 3 Zrotation Xrotation Yrotation
                        JOINT LeftHandThumb3
                        {
                          OFFSET 2.55832 0 0
                          CHANNELS 3 Zrotation Xrotation Yrotation
                          End Site
                          {
                            OFFSET 2.194 0 0
                          }
                        }
                      }
                    }
                    JOINT LeftInHandIndex
                    {
                      OFFSET 3.22368 0.508421 1.97842
                      CHANNELS 3 Zrotation Xrotation Yrotation
                      JOINT LeftHandIndex1
                      {
                        OFFSET 5.21684 -0.091368 0.999158
                        CHANNELS 3 Zrotation Xrotation Yrotation
                        JOINT LeftHandIndex2
                        {
                          OFFSET 3.61937 0 0
                          CHANNELS 3 Zrotation Xrotation Yrotation
                          JOINT LeftHandIndex3
                          {
                            OFFSET 2.0521 0 0
                            CHANNELS 3 Zrotation Xrotation Yrotation
                            End Site
                            {
                              OFFSET 1.805 0 0
                            }
                          }
                        }
                      }
                    }
                    JOINT LeftInHandMiddle
                    {
                      OFFSET 3.38211 0.517263 0.756737
                      CHANNELS 3 Zrotation Xrotation Yrotation
                      JOINT LeftHandMiddle1
                      {
                        OFFSET 5.17411 -0.084 0.313895
                        CHANNELS 3 Zrotation Xrotation Yrotation
                        JOINT LeftHandMiddle2
                        {
                          OFFSET 3.94947 0 0
                          CHANNELS 3 Zrotation Xrotation Yrotation
                          JOINT LeftHandMiddle3
                          {
                            OFFSET 2.47579 0 0
                            CHANNELS 3 Zrotation Xrotation Yrotation
                            End Site
                            {
                              OFFSET 1.975 0 0
                            }
                          }
                        }
                      }
                    }
                    JOINT LeftInHandRing
                    {
                      OFFSET 3.36516 0.537895 -0.128947
                      CHANNELS 3 Zrotation Xrotation Yrotation
                      JOINT LeftHandRing1
                      {
                        OFFSET 4.63474 -0.022105 -0.478947
                        CHANNELS 3 Zrotation Xrotation Yrotation
                        JOINT LeftHandRing2
                        {
                          OFFSET 3.44238 0 0
                          CHANNELS 3 Zrotation Xrotation Yrotation
                          JOINT LeftHandRing3
                          {
                            OFFSET 2.3881 0 0
                            CHANNELS 3 Zrotation Xrotation Yrotation
                            End Site
                            {
                              OFFSET 1.857 0 0
                            }
                          }
                        }
                      }
                    }
                    JOINT LeftInHandPinky
                    {
                      OFFSET 3.16105 0.469368 -1.20179
                      CHANNELS 3 Zrotation Xrotation Yrotation
                      JOINT LeftHandPinky1
                      {
                        OFFSET 4.14105 -0.022105 -1.09053
                        CHANNELS 3 Zrotation Xrotation Yrotation
                        JOINT LeftHandPinky2
                        {
                          OFFSET 2.75653 0 0
                          CHANNELS 3 Zrotation Xrotation Yrotation
                          JOINT LeftHandPinky3
                          {
                            OFFSET 1.74189 0 0
                            CHANNELS 3 Zrotation Xrotation Yrotation
                            End Site
                            {
                              OFFSET 1.645 0 0
                            }
                          }
                        }
                      }
                    }
                  }
                }
              }
            }
          }
        }
      }
    }
  }
}
MOTION
Frames: 2
Frame Time: 0.00833333
3.150000000000000000e+03 0.000000000000000000e+00 0.000000000000000000e+00 0.000000000000000000e+00 0.000000000000000000e+00 0.000000000000000000e+00 2.526660000000000750e+01 1.454989999999999561e+00 -1.364189999999999827e+02 3.504449999999999932e+01 -3.299199999999999022e+01 3.071359999999999957e+01 -5.200289999999999857e+00 1.366699999999999982e+01 2.960850000000000648e+00 2.287360000000001392e+00 8.288059999999999761e+00 5.381430000000000291e+01 3.443630000000000280e+01 -1.593140000000000001e+01 2.158389999999999276e+01 -2.317409999999999570e+01 4.392819999999999681e+01 2.199109999999999943e+01 -2.829899999999999860e+00 -1.460590000000000188e+01 1.473509999999999920e+01 -7.084630000000000649e+00 -4.184650000000000425e+00 -1.160020000000000095e+01 -1.694099999999999717e+00 -1.336880000000000290e+00 -2.771920000000000162e+00 -2.825570000000000803e+00 -2.290780000000000260e+00 -4.484890000000000043e+00 -5.697699999999998877e-01 -3.088010000000001032e-01 2.741490000000000649e+00 -2.526470000000000660e-01 -5.383799999999999031e+00 4.152870000000000772e+01 -9.057910000000001460e+00 8.289260000000000517e+00 2.565519999999999712e+01 3.294259999999999966e+00 3.720499999999999474e+00 2.177130000000001786e+00 2.570109999999999673e+01 -6.425419999999999732e+01 -5.713110000000000355e+00 2.301099999999999568e+01 -2.457679999999999865e+00 1.231250000000000000e+02 1.204299999999999571e+01 -2.115539999999999665e+01 1.048030000000000150e+01 2.818400000000000105e+01 1.072940000000000005e+01 1.915919999999999845e+01 -1.655180000000000362e-14 0.000000000000000000e+00 -1.000000000000000000e+01 -3.453299999999997955e-15 1.590280000000000116e-14 -1.000000000000000000e+01 -8.945310000000000988e-15 1.590280000000000471e-15 7.951389999999999226e-16 1.998179999999999978e+01 8.718970000000000331e-01 2.396399999999999864e+00 2.400000000000000000e+01 -4.770830000000000256e-15 -3.041409999999999382e-14 2.000000000000000000e+01 -1.590280000000000077e-15 -2.464930000000000080e-14 -8.945310000000000988e-15 1.590280000000000471e-15 7.951389999999999226e-16 2.000000000000000000e+01 0.000000000000000000e+00 -1.848700000000000241e-14 2.400000000000000000e+01 -3.180550000000000771e-15 -2.743229999999999889e-14 2.000000000000000000e+01 0.000000000000000000e+00 -2.067359999999999735e-14 -8.945310000000000988e-15 1.590280000000000471e-15 7.951389999999999226e-16 1.997479999999999833e+01 -1.025649999999999951e+00 -2.819380000000000219e+00 2.400000000000000000e+01 -7.951390000000002382e-15 -2.782990000000000835e-14 2.000000000000000000e+01 1.590280000000001063e-15 -3.339580000000000044e-14 -8.945310000000000988e-15 1.590280000000000471e-15 7.951389999999999226e-16 1.978150000000000119e+01 -3.009479999999999933e+00 -8.305149999999999366e+00 2.400000000000000000e+01 -1.192709999999999929e-14 -3.498610000000000579e-14 2.000000000000000000e+01 -8.150169999999998090e-15 -2.544439999999999986e-14 1.627279999999999660e+01 -2.384409999999999741e+01 -5.186330000000000950e+01 -2.529939999999999500e+01 1.746399999999999864e+01 -1.083719999999999857e+02 3.863360000000000127e+01 -9.516809999999999548e+00 -3.516329999999999956e+01 -2.731329999999999814e+01 -1.359810000000000052e+01 -1.586019999999999897e+01 -2.818400000000000105e+01 1.072940000000000005e+01 -1.915919999999999845e+01 1.404010000000000030e-14 -6.361109999999999741e-15 1.000000000000000000e+01 -1.886159999999999710e-14 -6.361109999999998163e-15 1.000000000000000000e+01 -6.957460000000002420e-16 7.951389999999999226e-15 2.385420000000000017e-15 -1.998179999999999978e+01 8.718970000000000331e-01 -2.396399999999999864e+00 -2.400000000000000000e+01 6.361110000000000530e-15 2.782989999999999493e-15 -2.000000000000000000e+01 1.590280000000000274e-15 3.925999999999999503e-15 -6.957460000000002420e-16 7.951389999999999226e-15 2.385420000000000017e-15 -2.000000000000000000e+01 6.361109999999999741e-15 0.000000000000000000e+00 -2.400000000000000000e+01 0.000000000000000000e+00 1.391490000000000450e-15 -2.000000000000000000e+01 3.180549999999999982e-15 5.367190000000001135e-15 -6.957460000000002420e-16 7.951389999999999226e-15 2.385420000000000017e-15 -1.997479999999999833e+01 -1.025649999999999951e+00 2.819380000000000219e+00 -2.400000000000000000e+01 -2.385419999999999622e-15 8.547740000000001906e-15 -2.000000000000000000e+01 0.000000000000000000e+00 -6.361109999999999741e-15 -6.957460000000002420e-16 7.951389999999999226e-15 2.385420000000000017e-15 -1.978150000000000119e+01 -3.009479999999999933e+00 8.305149999999999366e+00 -2.400000000000000000e+01 7.951389999999999226e-16 -4.770830000000000256e-15 -2.000000000000000000e+01 0.000000000000000000e+00 3.180549999999999982e-15
3.150000000000000000e+03 0.000000000000000000e+00 0.000000000000000000e+00 0.000000000000000000e+00 0.000000000000000000e+00 0.000000000000000000e+00 2.541619999999999635e+01 1.593890000000000029e+00 -1.360910000000000082e+02 3.509329999999999927e+01 -3.323850000000000193e+01 3.070070000000000476e+01 -5.143089999999999939e+00 1.371450000000000102e+01 3.004060000000000841e+00 2.294550000000000090e+00 8.276049999999997908e+00 5.343139999999999645e+01 3.452759999999999252e+01 -1.615270000000000294e+01 2.144790000000000063e+01 -2.300219999999999843e+01 4.399830000000000041e+01 2.179069999999999396e+01 -2.726309999999999789e+00 -1.463530000000000086e+01 1.468479999999999919e+01 -7.016920000000000712e+00 -4.121659999999998547e+00 -1.161999999999999922e+01 -1.678270000000000151e+00 -1.318599999999999994e+00 -2.780180000000000540e+00 -2.799360000000000070e+00 -2.260209999999998942e+00 -4.499959999999998850e+00 -5.689079999999999693e-01 -3.059439999999999382e-01 2.741699999999999804e+00 -2.793399999999999217e-01 -5.329219999999999402e+00 4.135979999999999990e+01 -9.055659999999999599e+00 8.256169999999999121e+00 2.574309999999999832e+01 3.382449999999999068e+00 3.725499999999998479e+00 2.161590000000000344e+00 2.645309999999999917e+01 -6.414960000000002083e+01 -5.004759999999997433e+00 2.291400000000000148e+01 -2.452030000000000598e+00 1.228150000000000261e+02 1.196390000000000242e+01 -2.125939999999999586e+01 1.063050000000000317e+01 2.818400000000000105e+01 1.072940000000000005e+01 1.915919999999999845e+01 -2.801259999999999769e-14 -3.180549999999999982e-15 -1.000000000000000000e+01 -1.348499999999999883e-14 -6.361109999999999741e-15 -1.000000000000000000e+01 -1.152950000000000088e-14 0.000000000000000000e+00 7.951390000000003171e-16 1.998179999999999978e+01 8.718970000000000331e-01 2.396399999999999864e+00 2.400000000000000000e+01 -7.951389999999999226e-15 -3.160679999999999286e-14 2.000000000000000000e+01 0.000000000000000000e+00 -2.226389999999999955e-14 -1.152950000000000088e-14 0.000000000000000000e+00 7.951390000000003171e-16 2.000000000000000000e+01 3.180549999999999982e-15 -1.868579999999999925e-14 2.400000000000000000e+01 -3.180549999999999587e-15 -2.902259999999999162e-14 2.000000000000000000e+01 -1.590279999999999485e-15 -2.067360000000000366e-14 -1.152950000000000088e-14 0.000000000000000000e+00 7.951390000000003171e-16 1.997479999999999833e+01 -1.025649999999999951e+00 -2.819380000000000219e+00 2.400000000000000000e+01 -9.541660000000000512e-15 -2.623959999999999037e-14 2.000000000000000000e+01 7.951389999999999226e-16 -3.180550000000000140e-14 -1.152950000000000088e-14 0.000000000000000000e+00 7.951390000000003171e-16 1.978150000000000119e+01 -3.009479999999999933e+00 -8.305149999999999366e+00 2.400000000000000000e+01 -8.746530000000000547e-15 -3.180550000000000771e-14 2.000000000000000000e+01 -7.156249999999999484e-15 -2.067360000000000051e-14 1.629399999999999693e+01 -2.381019999999999470e+01 -5.174029999999999774e+01 -2.531109999999999616e+01 1.755589999999999762e+01 -1.084500000000000171e+02 3.848789999999999623e+01 -9.334179999999998145e+00 -3.485210000000000008e+01 -2.744340000000000046e+01 -1.357360000000000078e+01 -1.583939999999999770e+01 -2.818400000000000105e+01 1.072940000000000005e+01 -1.915919999999999845e+01 9.935449999999998574e-15 3.180549999999999982e-15 1.000000000000000000e+01 -2.241689999999999710e-14 6.361109999999998163e-15 1.000000000000000000e+01 7.553820000000000144e-15 7.951389999999999226e-15 2.385420000000000411e-15 -1.998179999999999978e+01 8.718970000000000331e-01 -2.396399999999999864e+00 -2.400000000000000000e+01 1.590279999999999880e-15 1.987850000000000145e-15 -2.000000000000000000e+01 -3.180549999999999982e-15 3.876299999999999504e-15 7.553820000000000144e-15 7.951389999999999226e-15 2.385420000000000411e-15 -2.000000000000000000e+01 7.156249999999999484e-15 -1.590279999999999485e-15 -2.400000000000000000e+01 3.180549999999999587e-15 -9.939229999999996439e-16 -2.000000000000000000e+01 1.590279999999999485e-15 6.957459999999999265e-15 7.553820000000000144e-15 7.951389999999999226e-15 2.385420000000000411e-15 -1.997479999999999833e+01 -1.025649999999999951e+00 2.819380000000000219e+00 -2.400000000000000000e+01 0.000000000000000000e+00 1.003859999999999710e-14 -2.000000000000000000e+01 7.951389999999999226e-16 -4.770830000000000256e-15 7.553820000000000144e-15 7.951389999999999226e-15 2.385420000000000411e-15 -1.978150000000000119e+01 -3.009479999999999933e+00 8.305149999999999366e+00 -2.400000000000000000e+01 1.192710000000000008e-15 -7.951389999999999226e-16 -2.000000000000000000e+01 -9.566509999999998934e-16 3.975689999999999725e-15
